<svg width="415" height="412" viewBox="0 0 415 412" fill="none" xmlns="http://www.w3.org/2000/svg">
<path d="M145.63 353.942C175.995 369.77 191.177 377.667 207.5 377.667V206L45.6154 121.42L44.9237 122.57C34.5833 139.977 34.5833 161.658 34.5833 205.004V207.013C34.5833 250.341 34.5833 272.023 44.9064 289.43C55.2469 306.854 73.8527 316.553 111.047 335.935L145.63 353.942Z" fill="black"/>
<path d="M303.936 76.0827L269.352 58.0577C239.005 42.2472 223.823 34.3333 207.5 34.3333C191.159 34.3333 175.995 42.23 145.63 58.0577L111.047 76.0827C74.6654 95.0347 56.0596 104.717 45.6154 121.403L207.5 206L369.385 121.42C358.906 104.717 340.335 95.0347 303.936 76.0827Z" fill="black"/>
<path d="M370.094 122.57L369.385 121.42L207.5 206V377.667C223.823 377.667 239.005 369.77 269.37 353.942L303.953 335.917C341.147 316.536 359.753 306.854 370.094 289.43C380.417 272.023 380.417 250.341 380.417 207.03V205.021C380.417 161.676 380.417 139.977 370.094 122.57Z" fill="black"/>
<path d="M145.63 353.942C175.995 369.77 191.177 377.667 207.5 377.667V206L45.6154 121.42L44.9237 122.57C34.5833 139.977 34.5833 161.658 34.5833 205.004V207.013C34.5833 250.341 34.5833 272.023 44.9064 289.43C55.2469 306.854 73.8527 316.553 111.047 335.935L145.63 353.942Z" fill="white"/>
<path opacity="0.7" d="M303.936 76.0827L269.352 58.0577C239.005 42.2472 223.823 34.3333 207.5 34.3333C191.159 34.3333 175.995 42.23 145.63 58.0577L111.047 76.0827C74.6654 95.0347 56.0596 104.717 45.6154 121.403L207.5 206L369.385 121.42C358.906 104.717 340.335 95.0347 303.936 76.0827Z" fill="white"/>
<path opacity="0.5" d="M370.094 122.57L369.385 121.42L207.5 206V377.667C223.823 377.667 239.005 369.77 269.37 353.942L303.953 335.917C341.147 316.536 359.753 306.854 370.094 289.43C380.417 272.023 380.417 250.341 380.417 207.03V205.021C380.417 161.676 380.417 139.977 370.094 122.57Z" fill="white"/>
</svg>
