<svg width="156" height="54" viewBox="0 0 156 54" fill="none" xmlns="http://www.w3.org/2000/svg">
<g clip-path="url(#clip0_10_224)">
<path d="M53.6323 53.2224V0.777603H76.2193C90.6503 0.777603 102.366 12.5267 102.366 26.999C102.366 41.4713 90.6503 53.2205 76.2193 53.2205H53.6323V53.2224Z" fill="white"/>
<path d="M107.266 26.7214C107.266 12.2491 118.982 0.50001 133.413 0.50001L156 0.50001C156 14.9723 144.284 26.7214 129.854 26.7214H107.266Z" fill="white"/>
<path d="M107.265 53.5C107.265 39.0277 118.98 27.2786 133.411 27.2786L155.998 27.2786C155.998 41.7509 144.283 53.5 129.852 53.5H107.265Z" fill="white"/>
<path d="M29.2401 23.8985V0.777588H0V23.8985V49.6507V53.2224H48.7336V23.8985H29.2401Z" fill="white"/>
</g>
<defs>
<clipPath id="clip0_10_224">
<rect width="156" height="53" fill="white" transform="translate(0 0.5)"/>
</clipPath>
</defs>
</svg>
